<?xml version="1.0" standalone="no"?>
<!DOCTYPE svg PUBLIC "-//W3C//DTD SVG 20010904//EN"
 "http://www.w3.org/TR/2001/REC-SVG-20010904/DTD/svg10.dtd">
<svg version="1.0" xmlns="http://www.w3.org/2000/svg"
 width="244.000000pt" height="86.000000pt" viewBox="0 0 244.000000 86.000000"
 preserveAspectRatio="xMidYMid meet">

<g transform="translate(0.000000,86.000000) scale(0.100000,-0.100000)"
fill="#000000" stroke="none">
<path d="M0 430 l0 -430 1220 0 1220 0 0 430 0 430 -1220 0 -1220 0 0 -430z
m1209 95 c26 -13 41 -33 41 -56 0 -16 -19 -10 -44 16 -38 38 -106 28 -106 -16
0 -21 51 -49 90 -49 12 0 32 -11 46 -26 20 -19 24 -31 20 -52 -10 -42 -41 -62
-96 -62 -42 0 -52 4 -74 31 -31 37 -33 49 -6 49 11 0 20 -7 20 -15 0 -32 86
-49 110 -20 22 26 7 49 -40 63 -80 23 -95 34 -98 74 -5 64 69 99 137 63z m301
-100 l0 -115 60 0 c47 0 60 -3 60 -15 0 -12 -15 -15 -77 -15 l-78 0 2 127 c1
71 3 129 3 131 0 1 7 2 15 2 12 0 15 -19 15 -115z m-180 -28 c13 -37 27 -67
30 -67 3 0 17 30 30 67 14 36 31 68 38 71 20 6 15 -16 -34 -140 -37 -97 -50
-119 -69 -124 -25 -6 -45 1 -45 17 0 5 9 9 20 9 12 0 25 10 32 24 9 21 5 40
-24 115 -20 50 -33 93 -30 96 14 13 29 -6 52 -68z m443 61 c35 -18 46 -40 47
-86 0 -58 -33 -92 -90 -92 -58 0 -90 33 -90 94 0 37 5 48 31 70 33 28 67 33
102 14z m215 -4 c19 -13 22 -24 22 -78 0 -48 4 -65 15 -70 8 -3 15 -10 15 -16
0 -14 -47 -12 -53 3 -4 10 -7 10 -18 0 -19 -18 -79 -16 -101 4 -43 39 -4 93
68 93 41 0 45 2 42 23 -4 28 -58 37 -78 13 -13 -17 -40 -22 -40 -8 0 13 23 39
40 45 29 10 66 7 88 -9z m96 7 c4 -5 18 -5 36 2 38 14 80 0 97 -33 7 -14 13
-53 13 -87 0 -49 -3 -63 -15 -63 -12 0 -15 13 -15 58 0 65 -19 102 -52 102
-41 0 -58 -28 -58 -97 0 -49 -3 -63 -15 -63 -12 0 -15 17 -15 95 0 85 8 113
24 86z"/>
<path d="M1687 422 c-20 -22 -22 -71 -4 -95 37 -49 107 -19 107 46 0 59 -66
90 -103 49z"/>
<path d="M1884 345 c-8 -21 14 -45 42 -45 25 0 54 24 54 46 0 20 -88 20 -96
-1z"/>
</g>
</svg>
